PathFileType	4	(X/Y/Z)	OpenSim_Sub04_EMGBaseline_Accel.trc
DataRate	CameraRate	NumFrames	NumMarkers	Units	OrigDataRate	OrigDataStartFrame	OrigNumFrames
100	100	38	8	m	100	1	7941
Frame#	Time	torso_imu_offset_imu	pelvis_imu_offset_imu	tibia_r_imu_offset_imu	femur_r_imu_offset_imu	tibia_l_imu_offset_imu	femur_l_imu_offset_imu	toes_r_imu_offset_imu	toes_l_imu_offset_imu
				X1	Y1	Z1	X2	Y2	Z2	X3	Y3	Z3	X4	Y4	Z4	X5	Y5	Z5	X6	Y6	Z6	X7	Y7	Z7	X8		Y8	Z8	

1	0	-7.60503499	-0.24492638	8.79099448	9.27554415	0.02451287	3.69837637	9.57732082	1.93117872	2.17616386	9.49842121	-1.77259799	0.69824917	9.74750492	-1.13892327	1.25982010	9.64912154	0.74996167	-1.46249884	5.92115087	-1.70175257	7.83928388	4.98624858	2.98492193	10.66600734
2	0.01000000	-7.54713010	-0.22496976	8.78526764	9.29696062	0.02547311	3.64717990	9.61175156	1.98277465	2.14612927	9.54672863	-1.74058997	0.68100111	9.69535511	-1.11024991	1.25796119	9.65589160	0.78632972	-1.40325007	5.83853161	-1.66093933	7.88509261	4.99413856	2.97743996	10.59907213
3	0.02000000	-7.53987019	-0.22543206	8.78327695	9.31892760	0.04216501	3.60898216	9.55517213	2.06396356	2.22795919	9.52666658	-1.73328311	0.68891872	9.67679266	-1.12685271	1.25612105	9.65672669	0.84459973	-1.41757784	5.84358473	-1.74003697	7.80506457	4.99734909	2.99263358	10.61505301
4	0.03000000	-7.56569448	-0.17744410	8.85972955	9.37497917	0.09379768	3.58647200	9.51648293	2.08411424	2.20743076	9.56643242	-1.63521667	0.66254109	9.68164828	-1.16535571	1.22065704	9.61472085	0.83076767	-1.42474616	5.98898431	-1.67952722	7.88691777	4.97528030	3.01210766	10.59136378
5	0.04000000	-7.53500476	-0.14379199	8.90646877	9.39743662	0.15644546	3.59867050	9.53016052	2.03979352	2.13998089	9.61006953	-1.51219729	0.69072886	9.69233642	-1.16758639	1.16818444	9.59053836	0.90622776	-1.47801106	5.99829006	-1.64385226	7.92996553	5.00174586	3.02754213	10.62165096
6	0.05000000	-7.47353258	-0.16682472	8.92989845	9.45200642	0.20412173	3.56779737	9.52845076	1.96344430	2.24709584	9.63855557	-1.37347595	0.72541636	9.67397579	-1.23903220	1.17792272	9.58445148	0.92156432	-1.49294799	5.87745716	-1.65583291	7.89002982	4.99638300	2.98347513	10.62643660
7	0.06000000	-7.47029916	-0.23259343	9.03117091	9.44952027	0.28504660	3.58617568	9.58398427	1.94282365	2.18123366	9.65897562	-1.31794895	0.76912433	9.70219780	-1.34296322	1.19084319	9.59028376	0.93097221	-1.55620108	5.89242162	-1.77065304	7.89183759	5.00464401	2.99270588	10.65577912
8	0.07000000	-7.47893374	-0.29102692	9.13490372	9.48146185	0.31425939	3.58298111	9.63444995	1.96198316	2.17971346	9.67293022	-1.32877970	0.77120003	9.69613618	-1.38249829	1.14860766	9.57325099	0.95088671	-1.50011866	5.79549003	-1.77253127	7.79804342	5.00245374	2.99579873	10.63654717
9	0.08000000	-7.50340079	-0.26659531	9.27619936	9.47282621	0.30716663	3.60719216	9.61539768	1.99797295	2.18239870	9.66912861	-1.37367429	0.70046924	9.73251565	-1.30764760	1.13795825	9.64168502	0.98130650	-1.49471047	5.76738789	-1.73101823	7.89248722	4.98139001	2.97642375	10.64490734
10	0.09000000	-7.46921715	-0.24872030	9.34365722	9.47510102	0.34921964	3.60141348	9.61733883	2.02140015	2.15499030	9.62123181	-1.45862252	0.63942595	9.75993350	-1.24673287	1.17997869	9.61990947	0.99972341	-1.49240724	5.76716146	-1.75156650	7.88520462	4.98187802	3.02071354	10.64543319
11	0.10000000	-7.37512121	-0.21332507	9.37896373	9.44411455	0.34857119	3.61061605	9.58473190	2.05296843	2.15661327	9.57644247	-1.52472394	0.61086427	9.70183978	-1.15662048	1.22696376	9.61937671	1.00008818	-1.47829904	5.73812512	-1.73833657	7.85229606	4.97938309	3.00404845	10.64503812
12	0.11000000	-7.28699893	-0.26886641	9.23501458	9.36669513	0.31494175	3.66708029	9.58904521	2.12553376	2.14614079	9.58888316	-1.54678424	0.62094799	9.75190704	-1.05199842	1.23011884	9.60136885	0.97932621	-1.49674923	5.74563533	-1.77544392	7.90200916	4.97619530	2.97051441	10.65344742
13	0.12000000	-7.22478386	-0.25766690	9.21618089	9.33174799	0.28562773	3.62261059	9.54245986	2.20639360	2.11159726	9.57760994	-1.54303526	0.58703912	9.71859836	-1.00418800	1.27597426	9.62106199	0.97063675	-1.47632705	5.82433615	-1.75629995	7.90578537	4.96887797	3.00203748	10.65898612
14	0.13000000	-7.22880632	-0.22474766	9.20620455	9.30096820	0.23457664	3.64510676	9.56258225	2.20138111	2.11632057	9.59803711	-1.44609977	0.66258591	9.70844275	-1.00006198	1.30039209	9.63732033	0.97352116	-1.51188531	5.80804455	-1.73353267	7.88202636	4.96774031	3.01114076	10.61828018
15	0.14000000	-7.22203952	-0.18842007	9.14951793	9.30985757	0.23430792	3.64109974	9.57278095	2.21519328	2.16590235	9.58738971	-1.33660398	0.66376989	9.72774104	-0.98881078	1.27220561	9.65336630	0.96082678	-1.53170046	5.85013595	-1.76718896	7.90649768	4.97554526	3.00315111	10.64917989
16	0.15000000	-7.21497824	-0.09943903	9.12799319	9.32158319	0.20817105	3.66431405	9.56542551	2.20385403	2.07225506	9.58206863	-1.28227350	0.69561598	9.72884396	-0.97727179	1.25429940	9.67571036	1.01031913	-1.50208314	5.85071432	-1.72750032	7.88540580	4.98485450	3.00084990	10.60839996
17	0.16000000	-7.30440162	-0.01929827	9.11289115	9.32677432	0.21297060	3.66043295	9.54571906	2.18306178	2.09205990	9.61132366	-1.20263891	0.62645758	9.74549704	-0.94027855	1.24461156	9.67457850	1.02307765	-1.44416797	5.79615326	-1.73301131	7.85135626	4.98179519	3.02726086	10.61986048
18	0.17000000	-7.31507369	0.03046900	9.14990738	9.33028035	0.22716877	3.71007140	9.51955830	2.17377604	2.13744119	9.59787786	-1.20188467	0.62320705	9.72047609	-0.89344042	1.26017074	9.65961971	1.07619657	-1.44953292	5.84090542	-1.76276197	7.86407448	4.97571582	2.97070150	10.63326477
19	0.18000000	-7.34556466	-0.02519824	9.18479041	9.32000828	0.23779658	3.74105135	9.48648521	2.16737697	2.15008413	9.60553039	-1.25271871	0.63787690	9.72618172	-0.90347687	1.28061682	9.62849254	1.07647808	-1.40837076	5.78988845	-1.71487561	7.85133265	4.98199166	2.98998498	10.61404443
20	0.19000000	-7.38799451	-0.03597733	9.26543764	9.35634505	0.25413180	3.68853682	9.47576966	2.22024295	2.15066921	9.58640384	-1.28636233	0.59087469	9.72015759	-0.98342592	1.24924612	9.62751540	1.03490671	-1.43222759	5.82801024	-1.70949329	7.86390366	4.97653647	2.98100520	10.62201033
21	0.20000000	-7.36403774	-0.10104093	9.27246218	9.33692521	0.25552643	3.66752731	9.50546401	2.22568906	2.14199585	9.58551915	-1.33494881	0.61022694	9.69032628	-1.08883693	1.27880585	9.63769896	0.98133443	-1.42452274	5.82898459	-1.72837908	7.86901702	4.98028808	2.96815750	10.63763795
22	0.21000000	-7.35094695	-0.19805145	9.25238794	9.35269788	0.24254171	3.66197548	9.49957160	2.24962975	2.13987647	9.59319525	-1.35870704	0.62741608	9.64819392	-1.16100039	1.25978136	9.64302757	0.92965044	-1.45306328	5.84669206	-1.74053078	7.85422783	5.00876086	2.98411378	10.63062783
23	0.22000000	-7.30011169	-0.29043014	9.21188620	9.32249674	0.22569615	3.63830609	9.52892077	2.23397439	2.16375887	9.57169187	-1.38526671	0.61225514	9.68297603	-1.21036568	1.23126149	9.63589747	0.89067976	-1.48900956	5.86933044	-1.71721945	7.89829499	4.99866255	2.98661179	10.63396222
24	0.23000000	-7.33711896	-0.35787919	9.22299076	9.36876738	0.19387020	3.61818633	9.56013678	2.21946704	2.15823425	9.57645148	-1.41529844	0.62832493	9.71951010	-1.24330861	1.20638854	9.65296488	0.83794921	-1.48318814	5.85107464	-1.71077132	7.87650143	5.01773062	2.95851114	10.63145126
25	0.24000000	-7.37985342	-0.38853648	9.24752776	9.38481692	0.19326965	3.64319499	9.57478104	2.22232699	2.15240193	9.60118708	-1.42434685	0.66713673	9.71964972	-1.22173263	1.19565789	9.67080656	0.80611463	-1.50041065	5.80096568	-1.74592574	7.89185375	4.95188057	2.97894358	10.64241251
26	0.25000000	-7.39567877	-0.38569656	9.21120444	9.40627803	0.20360403	3.65091373	9.59230938	2.25020791	2.19439191	9.61028847	-1.38810871	0.65344487	9.73662586	-1.24261823	1.19287738	9.63573171	0.81648046	-1.50776904	5.83439294	-1.70359496	7.91188217	4.99614943	3.00067281	10.62098265
27	0.26000000	-7.42838336	-0.33362059	9.23199877	9.45593878	0.20932879	3.63900756	9.56558418	2.25764729	2.16224582	9.64368614	-1.41817171	0.63142033	9.71899236	-1.19286567	1.25920439	9.64144196	0.80527449	-1.51223835	5.86394319	-1.70355857	7.87677503	4.97314534	2.98995257	10.64467311
28	0.27000000	-7.42996336	-0.29652519	9.26823111	9.42800979	0.19486099	3.67022167	9.56153619	2.25786552	2.15419318	9.63547714	-1.40009996	0.63530556	9.71513688	-1.17297016	1.29651645	9.65251955	0.76111544	-1.44676358	5.83340600	-1.72014814	7.89279967	5.01384877	2.96005348	10.63525471
29	0.28000000	-7.36153799	-0.26115952	9.26950278	9.48888180	0.20943008	3.65022409	9.56008162	2.27287040	2.24445667	9.59425546	-1.44482294	0.63522133	9.67006361	-1.16015581	1.31493298	9.66804339	0.74348462	-1.49720010	5.82599291	-1.68954186	7.89544729	5.00759525	2.96448011	10.63230035
30	0.29000000	-7.39027833	-0.24638051	9.25673024	9.45313688	0.18943157	3.65010965	9.54692290	2.17468999	2.24210547	9.58796042	-1.43635045	0.62428339	9.67628743	-1.18977694	1.32764723	9.68376631	0.76670976	-1.46426697	5.84829973	-1.72119681	7.88897050	5.02254916	2.96851422	10.62185419
31	0.30000000	-7.38785993	-0.22140100	9.21504009	9.42562744	0.12748704	3.63287420	9.52249189	2.14788192	2.18817528	9.60044165	-1.44573784	0.64380036	9.66679633	-1.23865812	1.24704622	9.68921362	0.75002875	-1.45547633	5.85348094	-1.70695867	7.89776255	5.03739962	2.96057027	10.64890637
32	0.31000000	-7.28134667	-0.22843552	9.18741532	9.34678553	0.12684890	3.67208848	9.55037408	2.11466380	2.20636070	9.56964311	-1.49237694	0.63163765	9.65683323	-1.23498975	1.16381828	9.70195602	0.67946742	-1.49365862	5.83821377	-1.73174123	7.86151744	4.98875402	2.97408504	10.61435174
33	0.32000000	-7.23135542	-0.24120110	9.16544302	9.37838740	0.12288434	3.63699579	9.54049460	2.10863176	2.12739305	9.54107097	-1.50545758	0.64046850	9.66815402	-1.24102398	1.22819288	9.64841213	0.71685299	-1.48996761	5.83699819	-1.71638185	7.85019854	4.98245917	2.92168341	10.62607166
34	0.33000000	-7.29833195	-0.23308753	9.15939398	9.33828924	0.11985284	3.64678347	9.53427570	2.08920711	2.16447996	9.56001409	-1.49578290	0.65898005	9.68630746	-1.22934904	1.21899584	9.62827108	0.75025347	-1.50162555	5.83980660	-1.74296858	7.84611897	4.99319535	2.95374648	10.69500388
35	0.34000000	-7.38563968	-0.24833336	9.25906283	9.32701412	0.13855778	3.64703191	9.54758089	2.10381672	2.14140560	9.56421594	-1.43862674	0.65168589	9.69025025	-1.27675506	1.17801393	9.63550768	0.78414563	-1.52374133	5.85930563	-1.72726737	7.81095250	5.01441949	2.93984005	10.63495850
36	0.35000000	-7.38918239	-0.25451926	9.32326311	9.35189070	0.16120111	3.65168485	9.53290745	2.17877179	2.16208686	9.57317711	-1.40451130	0.65141850	9.73377983	-1.34741565	1.20344093	9.63893222	0.80656953	-1.49925780	5.88300192	-1.73210470	7.80561500	5.02387981	2.94001446	10.63086525
37	0.36000000	-7.40790172	-0.25713909	9.34061961	9.36962636	0.15662077	3.62269147	9.51386931	2.19044148	2.19008508	9.58268083	-1.42220323	0.68422422	9.70291025	-1.39633970	1.21987236	9.63480701	0.77758557	-1.50401592	5.91548541	-1.68585476	7.87688040	5.00312115	2.98173947	10.61613611
38	0.37000000	-7.41889818	-0.25783154	9.31058771	9.33612775	0.14984685	3.63039641	9.53779264	2.23517453	2.17782297	9.58657031	-1.39061486	0.69953089	9.67367398	-1.42153341	1.18407581	9.64027330	0.80895560	-1.52479973	5.89272152	-1.68996998	7.86594552	5.02268184	2.96152812	10.65200258
